<?xml version="1.0" encoding="UTF-8" standalone="no"?>
<!DOCTYPE svg PUBLIC "-//W3C//DTD SVG 1.1//EN"
 "http://www.w3.org/Graphics/SVG/1.1/DTD/svg11.dtd">
<!-- Generated by graphviz version 2.38.0 (20140413.2041)
 -->
<!-- Title: controllers_diagram Pages: 1 -->
<svg width="630pt" height="595pt"
 viewBox="0.00 0.00 630.00 594.50" xmlns="http://www.w3.org/2000/svg" xmlns:xlink="http://www.w3.org/1999/xlink">
<g id="graph0" class="graph" transform="scale(1 1) rotate(0) translate(259 369.5)">
<title>controllers_diagram</title>
<polygon fill="none" stroke="none" points="-259,225 -259,-369.5 371,-369.5 371,225 -259,225"/>
<!-- _diagram_info -->
<g id="node1" class="node"><title>_diagram_info</title>
<text text-anchor="start" x="161" y="-216.6" font-family="Times,serif" font-size="13.00">Controllers diagram</text>
<text text-anchor="start" x="161" y="-202.6" font-family="Times,serif" font-size="13.00">Date: Nov 08 2016 &#45; 22:17</text>
<text text-anchor="start" x="161" y="-188.6" font-family="Times,serif" font-size="13.00">Migration version: 20160829043835</text>
<text text-anchor="start" x="161" y="-174.6" font-family="Times,serif" font-size="13.00">Generated by RailRoady 1.5.2</text>
<text text-anchor="start" x="161" y="-160.6" font-family="Times,serif" font-size="13.00">http://railroady.prestonlee.com</text>
</g>
<!-- FixedPagesController -->
<g id="node2" class="node"><title>FixedPagesController</title>
<path fill="none" stroke="black" d="M-192,-205C-192,-205 -82,-205 -82,-205 -76,-205 -70,-211 -70,-217 -70,-217 -70,-331 -70,-331 -70,-337 -76,-343 -82,-343 -82,-343 -192,-343 -192,-343 -198,-343 -204,-337 -204,-331 -204,-331 -204,-217 -204,-217 -204,-211 -198,-205 -192,-205"/>
<text text-anchor="middle" x="-137" y="-327.8" font-family="Times,serif" font-size="14.00">FixedPagesController</text>
<polyline fill="none" stroke="black" points="-204,-320 -70,-320 "/>
<text text-anchor="start" x="-196" y="-304.8" font-family="Times,serif" font-size="14.00">about</text>
<text text-anchor="start" x="-196" y="-289.8" font-family="Times,serif" font-size="14.00">contact</text>
<text text-anchor="start" x="-196" y="-274.8" font-family="Times,serif" font-size="14.00">help</text>
<text text-anchor="start" x="-196" y="-259.8" font-family="Times,serif" font-size="14.00">home</text>
<polyline fill="none" stroke="black" points="-204,-252 -70,-252 "/>
<polyline fill="none" stroke="black" points="-204,-228 -70,-228 "/>
<text text-anchor="start" x="-196" y="-212.8" font-family="Times,serif" font-size="14.00">_layout</text>
</g>
<!-- SessionsController -->
<g id="node3" class="node"><title>SessionsController</title>
<path fill="none" stroke="black" d="M-225.5,-0.5C-225.5,-0.5 -130.5,-0.5 -130.5,-0.5 -124.5,-0.5 -118.5,-6.5 -118.5,-12.5 -118.5,-12.5 -118.5,-111.5 -118.5,-111.5 -118.5,-117.5 -124.5,-123.5 -130.5,-123.5 -130.5,-123.5 -225.5,-123.5 -225.5,-123.5 -231.5,-123.5 -237.5,-117.5 -237.5,-111.5 -237.5,-111.5 -237.5,-12.5 -237.5,-12.5 -237.5,-6.5 -231.5,-0.5 -225.5,-0.5"/>
<text text-anchor="middle" x="-178" y="-108.3" font-family="Times,serif" font-size="14.00">SessionsController</text>
<polyline fill="none" stroke="black" points="-237.5,-100.5 -118.5,-100.5 "/>
<text text-anchor="start" x="-229.5" y="-85.3" font-family="Times,serif" font-size="14.00">create</text>
<text text-anchor="start" x="-229.5" y="-70.3" font-family="Times,serif" font-size="14.00">destroy</text>
<text text-anchor="start" x="-229.5" y="-55.3" font-family="Times,serif" font-size="14.00">new</text>
<polyline fill="none" stroke="black" points="-237.5,-47.5 -118.5,-47.5 "/>
<polyline fill="none" stroke="black" points="-237.5,-23.5 -118.5,-23.5 "/>
<text text-anchor="start" x="-229.5" y="-8.3" font-family="Times,serif" font-size="14.00">_layout</text>
</g>
<!-- ApplicationController -->
<g id="node4" class="node"><title>ApplicationController</title>
<path fill="none" stroke="black" d="M-243,135.5C-243,135.5 -131,135.5 -131,135.5 -125,135.5 -119,129.5 -119,123.5 -119,123.5 -119,38.5 -119,38.5 -119,32.5 -125,26.5 -131,26.5 -131,26.5 -243,26.5 -243,26.5 -249,26.5 -255,32.5 -255,38.5 -255,38.5 -255,123.5 -255,123.5 -255,129.5 -249,135.5 -243,135.5"/>
<text text-anchor="middle" x="-187" y="41.7" font-family="Times,serif" font-size="14.00">ApplicationController</text>
<polyline fill="none" stroke="black" points="-255,49.5 -119,49.5 "/>
<polyline fill="none" stroke="black" points="-255,73.5 -119,73.5 "/>
<polyline fill="none" stroke="black" points="-255,97.5 -119,97.5 "/>
<text text-anchor="start" x="-247" y="112.7" font-family="Times,serif" font-size="14.00">_layout</text>
<text text-anchor="start" x="-247" y="127.7" font-family="Times,serif" font-size="14.00">logged_in_user</text>
</g>
<!-- PasswordResetsController -->
<g id="node5" class="node"><title>PasswordResetsController</title>
<path fill="none" stroke="black" d="M-73.5,118.5C-73.5,118.5 61.5,118.5 61.5,118.5 67.5,118.5 73.5,112.5 73.5,106.5 73.5,106.5 73.5,-82.5 73.5,-82.5 73.5,-88.5 67.5,-94.5 61.5,-94.5 61.5,-94.5 -73.5,-94.5 -73.5,-94.5 -79.5,-94.5 -85.5,-88.5 -85.5,-82.5 -85.5,-82.5 -85.5,106.5 -85.5,106.5 -85.5,112.5 -79.5,118.5 -73.5,118.5"/>
<text text-anchor="middle" x="-6" y="-79.3" font-family="Times,serif" font-size="14.00">PasswordResetsController</text>
<polyline fill="none" stroke="black" points="-85.5,-71.5 73.5,-71.5 "/>
<text text-anchor="start" x="-77.5" y="-56.3" font-family="Times,serif" font-size="14.00">create</text>
<text text-anchor="start" x="-77.5" y="-41.3" font-family="Times,serif" font-size="14.00">edit</text>
<text text-anchor="start" x="-77.5" y="-26.3" font-family="Times,serif" font-size="14.00">new</text>
<text text-anchor="start" x="-77.5" y="-11.3" font-family="Times,serif" font-size="14.00">update</text>
<polyline fill="none" stroke="black" points="-85.5,-3.5 73.5,-3.5 "/>
<polyline fill="none" stroke="black" points="-85.5,20.5 73.5,20.5 "/>
<text text-anchor="start" x="-77.5" y="35.7" font-family="Times,serif" font-size="14.00">_layout</text>
<text text-anchor="start" x="-77.5" y="50.7" font-family="Times,serif" font-size="14.00">check_expiration</text>
<text text-anchor="start" x="-77.5" y="65.7" font-family="Times,serif" font-size="14.00">get_user</text>
<text text-anchor="start" x="-77.5" y="80.7" font-family="Times,serif" font-size="14.00">password_blank?</text>
<text text-anchor="start" x="-77.5" y="95.7" font-family="Times,serif" font-size="14.00">user_params</text>
<text text-anchor="start" x="-77.5" y="110.7" font-family="Times,serif" font-size="14.00">valid_user</text>
</g>
<!-- AccountActivationsController -->
<g id="node6" class="node"><title>AccountActivationsController</title>
<path fill="none" stroke="black" d="M114,220.5C114,220.5 270,220.5 270,220.5 276,220.5 282,214.5 282,208.5 282,208.5 282,139.5 282,139.5 282,133.5 276,127.5 270,127.5 270,127.5 114,127.5 114,127.5 108,127.5 102,133.5 102,139.5 102,139.5 102,208.5 102,208.5 102,214.5 108,220.5 114,220.5"/>
<text text-anchor="middle" x="192" y="142.7" font-family="Times,serif" font-size="14.00">AccountActivationsController</text>
<polyline fill="none" stroke="black" points="102,150.5 282,150.5 "/>
<text text-anchor="start" x="110" y="165.7" font-family="Times,serif" font-size="14.00">edit</text>
<polyline fill="none" stroke="black" points="102,173.5 282,173.5 "/>
<polyline fill="none" stroke="black" points="102,197.5 282,197.5 "/>
<text text-anchor="start" x="110" y="212.7" font-family="Times,serif" font-size="14.00">_layout</text>
</g>
<!-- DocumentsController -->
<g id="node7" class="node"><title>DocumentsController</title>
<path fill="none" stroke="black" d="M114,101C114,101 224,101 224,101 230,101 236,95 236,89 236,89 236,-115 236,-115 236,-121 230,-127 224,-127 224,-127 114,-127 114,-127 108,-127 102,-121 102,-115 102,-115 102,89 102,89 102,95 108,101 114,101"/>
<text text-anchor="middle" x="169" y="-111.8" font-family="Times,serif" font-size="14.00">DocumentsController</text>
<polyline fill="none" stroke="black" points="102,-104 236,-104 "/>
<text text-anchor="start" x="110" y="-88.8" font-family="Times,serif" font-size="14.00">create</text>
<text text-anchor="start" x="110" y="-73.8" font-family="Times,serif" font-size="14.00">destroy</text>
<text text-anchor="start" x="110" y="-58.8" font-family="Times,serif" font-size="14.00">edit</text>
<text text-anchor="start" x="110" y="-43.8" font-family="Times,serif" font-size="14.00">index</text>
<text text-anchor="start" x="110" y="-28.8" font-family="Times,serif" font-size="14.00">new</text>
<text text-anchor="start" x="110" y="-13.8" font-family="Times,serif" font-size="14.00">show</text>
<text text-anchor="start" x="110" y="1.2" font-family="Times,serif" font-size="14.00">update</text>
<polyline fill="none" stroke="black" points="102,9 236,9 "/>
<polyline fill="none" stroke="black" points="102,33 236,33 "/>
<text text-anchor="start" x="110" y="48.2" font-family="Times,serif" font-size="14.00">_layout</text>
<text text-anchor="start" x="110" y="63.2" font-family="Times,serif" font-size="14.00">correct_user</text>
<text text-anchor="start" x="110" y="78.2" font-family="Times,serif" font-size="14.00">document_params</text>
<text text-anchor="start" x="110" y="93.2" font-family="Times,serif" font-size="14.00">logged_in_user</text>
</g>
<!-- UsersController -->
<g id="node8" class="node"><title>UsersController</title>
<path fill="none" stroke="black" d="M-21.5,-137C-21.5,-137 57.5,-137 57.5,-137 63.5,-137 69.5,-143 69.5,-149 69.5,-149 69.5,-353 69.5,-353 69.5,-359 63.5,-365 57.5,-365 57.5,-365 -21.5,-365 -21.5,-365 -27.5,-365 -33.5,-359 -33.5,-353 -33.5,-353 -33.5,-149 -33.5,-149 -33.5,-143 -27.5,-137 -21.5,-137"/>
<text text-anchor="middle" x="18" y="-349.8" font-family="Times,serif" font-size="14.00">UsersController</text>
<polyline fill="none" stroke="black" points="-33.5,-342 69.5,-342 "/>
<text text-anchor="start" x="-25.5" y="-326.8" font-family="Times,serif" font-size="14.00">create</text>
<text text-anchor="start" x="-25.5" y="-311.8" font-family="Times,serif" font-size="14.00">destroy</text>
<text text-anchor="start" x="-25.5" y="-296.8" font-family="Times,serif" font-size="14.00">edit</text>
<text text-anchor="start" x="-25.5" y="-281.8" font-family="Times,serif" font-size="14.00">index</text>
<text text-anchor="start" x="-25.5" y="-266.8" font-family="Times,serif" font-size="14.00">new</text>
<text text-anchor="start" x="-25.5" y="-251.8" font-family="Times,serif" font-size="14.00">show</text>
<text text-anchor="start" x="-25.5" y="-236.8" font-family="Times,serif" font-size="14.00">update</text>
<polyline fill="none" stroke="black" points="-33.5,-229 69.5,-229 "/>
<polyline fill="none" stroke="black" points="-33.5,-205 69.5,-205 "/>
<text text-anchor="start" x="-25.5" y="-189.8" font-family="Times,serif" font-size="14.00">_layout</text>
<text text-anchor="start" x="-25.5" y="-174.8" font-family="Times,serif" font-size="14.00">admin_user</text>
<text text-anchor="start" x="-25.5" y="-159.8" font-family="Times,serif" font-size="14.00">correct_user</text>
<text text-anchor="start" x="-25.5" y="-144.8" font-family="Times,serif" font-size="14.00">user_params</text>
</g>
</g>
</svg>
