<?xml version="1.0" encoding="UTF-8" standalone="no"?>
<!DOCTYPE svg PUBLIC "-//W3C//DTD SVG 1.1//EN"
 "http://www.w3.org/Graphics/SVG/1.1/DTD/svg11.dtd">
<!-- Generated by graphviz version 2.38.0 (20140413.2041)
 -->
<!-- Title: models_diagram Pages: 1 -->
<svg width="572pt" height="423pt"
 viewBox="0.00 0.00 572.00 423.00" xmlns="http://www.w3.org/2000/svg" xmlns:xlink="http://www.w3.org/1999/xlink">
<g id="graph0" class="graph" transform="scale(1 1) rotate(0) translate(4 419)">
<title>models_diagram</title>
<polygon fill="none" stroke="none" points="-4,4 -4,-419 568,-419 568,4 -4,4"/>
<!-- _diagram_info -->
<g id="node1" class="node"><title>_diagram_info</title>
<text text-anchor="start" x="8" y="-326.1" font-family="Times,serif" font-size="13.00">Models diagram</text>
<text text-anchor="start" x="8" y="-312.1" font-family="Times,serif" font-size="13.00">Date: Nov 08 2016 &#45; 22:17</text>
<text text-anchor="start" x="8" y="-298.1" font-family="Times,serif" font-size="13.00">Migration version: 20160829043835</text>
<text text-anchor="start" x="8" y="-284.1" font-family="Times,serif" font-size="13.00">Generated by RailRoady 1.5.2</text>
<text text-anchor="start" x="8" y="-270.1" font-family="Times,serif" font-size="13.00">http://railroady.prestonlee.com</text>
</g>
<!-- ApplicationRecord -->
<g id="node2" class="node"><title>ApplicationRecord</title>
<ellipse fill="none" stroke="black" cx="309" cy="-301.5" rx="77.1866" ry="18"/>
<text text-anchor="middle" x="309" y="-297.8" font-family="Times,serif" font-size="14.00">ApplicationRecord</text>
</g>
<!-- Document -->
<g id="node3" class="node"><title>Document</title>
<path fill="none" stroke="black" d="M430.5,-0.5C430.5,-0.5 537.5,-0.5 537.5,-0.5 543.5,-0.5 549.5,-6.5 549.5,-12.5 549.5,-12.5 549.5,-139.5 549.5,-139.5 549.5,-145.5 543.5,-151.5 537.5,-151.5 537.5,-151.5 430.5,-151.5 430.5,-151.5 424.5,-151.5 418.5,-145.5 418.5,-139.5 418.5,-139.5 418.5,-12.5 418.5,-12.5 418.5,-6.5 424.5,-0.5 430.5,-0.5"/>
<text text-anchor="middle" x="484" y="-136.3" font-family="Times,serif" font-size="14.00">Document</text>
<polyline fill="none" stroke="black" points="418.5,-128.5 549.5,-128.5 "/>
<text text-anchor="start" x="426.5" y="-113.3" font-family="Times,serif" font-size="14.00">id :INTEGER</text>
<text text-anchor="start" x="426.5" y="-98.3" font-family="Times,serif" font-size="14.00">title :varchar</text>
<text text-anchor="start" x="426.5" y="-83.3" font-family="Times,serif" font-size="14.00">link :varchar</text>
<text text-anchor="start" x="426.5" y="-68.3" font-family="Times,serif" font-size="14.00">tag :varchar</text>
<text text-anchor="start" x="426.5" y="-53.3" font-family="Times,serif" font-size="14.00">department :varchar</text>
<text text-anchor="start" x="426.5" y="-38.3" font-family="Times,serif" font-size="14.00">created_at :datetime</text>
<text text-anchor="start" x="426.5" y="-23.3" font-family="Times,serif" font-size="14.00">updated_at :datetime</text>
<text text-anchor="start" x="426.5" y="-8.3" font-family="Times,serif" font-size="14.00">user_id :integer</text>
</g>
<!-- User -->
<g id="node4" class="node"><title>User</title>
<path fill="none" stroke="black" d="M416,-188.5C416,-188.5 552,-188.5 552,-188.5 558,-188.5 564,-194.5 564,-200.5 564,-200.5 564,-402.5 564,-402.5 564,-408.5 558,-414.5 552,-414.5 552,-414.5 416,-414.5 416,-414.5 410,-414.5 404,-408.5 404,-402.5 404,-402.5 404,-200.5 404,-200.5 404,-194.5 410,-188.5 416,-188.5"/>
<text text-anchor="middle" x="484" y="-399.3" font-family="Times,serif" font-size="14.00">User</text>
<polyline fill="none" stroke="black" points="404,-391.5 564,-391.5 "/>
<text text-anchor="start" x="412" y="-376.3" font-family="Times,serif" font-size="14.00">id :INTEGER</text>
<text text-anchor="start" x="412" y="-361.3" font-family="Times,serif" font-size="14.00">name :varchar</text>
<text text-anchor="start" x="412" y="-346.3" font-family="Times,serif" font-size="14.00">email :varchar</text>
<text text-anchor="start" x="412" y="-331.3" font-family="Times,serif" font-size="14.00">created_at :datetime</text>
<text text-anchor="start" x="412" y="-316.3" font-family="Times,serif" font-size="14.00">updated_at :datetime</text>
<text text-anchor="start" x="412" y="-301.3" font-family="Times,serif" font-size="14.00">password_digest :varchar</text>
<text text-anchor="start" x="412" y="-286.3" font-family="Times,serif" font-size="14.00">remember_digest :varchar</text>
<text text-anchor="start" x="412" y="-271.3" font-family="Times,serif" font-size="14.00">admin :boolean</text>
<text text-anchor="start" x="412" y="-256.3" font-family="Times,serif" font-size="14.00">activation_digest :varchar</text>
<text text-anchor="start" x="412" y="-241.3" font-family="Times,serif" font-size="14.00">activated :boolean</text>
<text text-anchor="start" x="412" y="-226.3" font-family="Times,serif" font-size="14.00">activated_at :datetime</text>
<text text-anchor="start" x="412" y="-211.3" font-family="Times,serif" font-size="14.00">reset_digest :varchar</text>
<text text-anchor="start" x="412" y="-196.3" font-family="Times,serif" font-size="14.00">reset_sent_at :datetime</text>
</g>
<!-- User&#45;&gt;Document -->
<g id="edge1" class="edge"><title>User&#45;&gt;Document</title>
<path fill="none" stroke="#8bda13" d="M484,-180.281C484,-174.083 484,-167.919 484,-161.868"/>
<ellipse fill="none" stroke="#8bda13" cx="484" cy="-184.423" rx="4" ry="4"/>
<polygon fill="#8bda13" stroke="#8bda13" points="484,-161.802 488.5,-151.802 484,-156.802 484,-151.802 484,-151.802 484,-151.802 484,-156.802 479.5,-151.802 484,-161.802 484,-161.802"/>
</g>
</g>
</svg>
